<svg width="48" height="75" viewBox="0 0 48 75" fill="none" xmlns="http://www.w3.org/2000/svg">
<path fill-rule="evenodd" clip-rule="evenodd" d="M28.0403 0.5H28.1493V0.81361C31.3778 10.0677 35.2984 18.0191 41.6791 25.3315C46.4219 30.7702 49.0859 36.9185 47.5787 44.2947C47.1681 46.2952 47.2822 48.2502 47.3967 50.2119C47.4377 50.9144 47.4788 51.6178 47.4958 52.3244C47.6018 56.7081 47.0671 60.9237 43.7809 64.3223C42.515 63.4453 42.9215 62.3603 43.2498 61.4842C43.2657 61.4416 43.2815 61.3995 43.2969 61.3579C46.2698 53.3468 43.1725 47.5486 36.835 42.8942C36.5302 42.6705 36.2267 42.4455 35.9233 42.2206L35.9228 42.2203L35.9228 42.2202C34.0099 40.8024 32.1018 39.3881 29.926 38.3284C29.1069 37.9294 28.5387 37.7832 28.1493 37.8672V62.3172H28.0997C28.017 67.9855 22.7703 73.111 15.6697 74.1311C7.96235 75.2384 0.989309 71.0895 0.0949633 64.8644C-0.799383 58.6392 4.72364 52.6951 12.431 51.5878C16.2635 51.0372 19.9145 51.7862 22.7267 53.444V0.5H28.0403ZM30.1933 22.8105C31.9515 29.889 36.6698 34.7278 41.5894 39.773L41.5895 39.7731C42.8086 41.0234 44.0401 42.2863 45.2419 43.5991C45.5969 33.5028 39.118 29.015 32.6799 24.5555C31.8454 23.9774 31.0115 23.3998 30.1933 22.8105Z" fill="#64B94F" fill-opacity="0.2"/>
</svg>
