<svg width="48" height="63" viewBox="0 0 48 63" fill="none" xmlns="http://www.w3.org/2000/svg">
<path fill-rule="evenodd" clip-rule="evenodd" d="M16.5254 4.74658V5.59591V12.3904V46.553C14.7894 45.3696 12.604 44.6644 10.2295 44.6644C4.57991 44.6644 0 48.657 0 53.5822C0 58.5074 4.57991 62.5 10.2295 62.5C15.7158 62.5 20.1934 58.7348 20.4476 54.0069H20.4598V11.8596L44.0664 8.67465V40.6078C42.3305 39.4245 40.145 38.7192 37.7705 38.7192C32.1209 38.7192 27.541 42.7119 27.541 47.637C27.541 52.5622 32.1209 56.5548 37.7705 56.5548C42.5808 56.5548 46.6156 53.6604 47.7083 49.7603H48.0008V1.34934H48.0008V0.5L16.5254 4.74658Z" fill="#64B94F" fill-opacity="0.2"/>
</svg>
