<svg width="48" height="68" viewBox="0 0 48 68" fill="none" xmlns="http://www.w3.org/2000/svg">
<path d="M21.8343 1.80057C22.2673 1.02586 23.1113 0.5 24.0816 0.5C25.0473 0.5 25.888 1.02091 26.3228 1.78962C26.4282 1.95837 26.5151 2.1418 26.5798 2.33813C27.7854 5.99588 30.1314 8.63557 32.9938 11.0061C34.3512 12.1303 35.7805 13.1592 37.2593 14.2238L37.3737 14.3061C37.433 14.3489 37.4925 14.3916 37.5519 14.4345C39.1025 15.5514 40.7162 16.7241 42.1651 18.0002C45.1064 20.5907 47.6167 23.8247 47.9602 28.5052C48.293 33.0399 46.5495 38.4531 42.2913 45.385C41.5482 46.5948 39.9374 46.9896 38.6937 46.2667C37.4499 45.5438 37.0441 43.9771 37.7873 42.7673C41.8289 36.188 42.9469 31.8686 42.7267 28.8686C42.5172 26.0145 41.0601 23.9118 38.6434 21.7833C37.4132 20.6998 36.0002 19.6673 34.4294 18.5358C34.323 18.4592 34.2159 18.3821 34.1082 18.3046C32.658 17.2609 31.092 16.1338 29.5924 14.8919C28.5823 14.0554 27.5834 13.1519 26.6378 12.1567V56.1152C26.6378 56.2409 26.6282 56.3645 26.6097 56.4852C26.6283 56.7089 26.6378 56.9347 26.6378 57.1621C26.6378 62.8716 20.6747 67.5 13.3189 67.5C5.96307 67.5 0 62.8716 0 57.1621C0 51.4527 5.96307 46.8242 13.3189 46.8242C16.4147 46.8242 19.2638 47.644 21.5255 49.0192V3.69195C21.3666 3.02698 21.4929 2.35254 21.8343 1.80057Z" fill="#64B94F" fill-opacity="0.2"/>
</svg>
