<svg width="25" height="20" viewBox="0 0 25 20" fill="none" xmlns="http://www.w3.org/2000/svg">
<path d="M24.498 10.8636H18.556C18.6576 6.09091 19.8859 5.54914 21.4285 5.3945L22.0234 5.31322L22.0234 0.065134L21.3377 0.105633C19.3233 0.230541 17.0961 0.63077 15.6102 2.65236C14.3077 4.42454 13.7335 7.31982 13.7335 11.7643L13.7335 20H24.498V10.8636Z" fill="#64B94F" fill-opacity="0.3"/>
<path d="M10.7637 20L10.7637 10.8636H4.90095C5.00253 6.09091 6.19109 5.54914 7.73376 5.3945L8.28906 5.31322V0.065134L7.64294 0.105633C5.62849 0.230541 3.38142 0.63077 1.89554 2.65236C0.593149 4.42454 -0.000880241 7.31982 -0.000880241 11.7643L-0.000880241 20H10.7637Z" fill="#64B94F" fill-opacity="0.3"/>
</svg>
