<svg width="17" height="14" viewBox="0 0 17 14" fill="none" xmlns="http://www.w3.org/2000/svg">
<path d="M15.3071 0.516602H1.69384C0.894397 0.516602 0.242188 1.1681 0.242188 1.96825V11.6459C0.242188 12.4433 0.891493 13.0975 1.69384 13.0975H15.3071C16.1045 13.0975 16.7587 12.4482 16.7587 11.6459V1.96825C16.7587 1.17081 16.1094 0.516602 15.3071 0.516602ZM15.1066 1.48437L8.53123 8.05978L1.89897 1.48437H15.1066ZM1.20995 11.4455V2.16403L5.87068 6.78478L1.20995 11.4455ZM1.89426 12.1298L6.55792 7.46612L8.19206 9.08623C8.38122 9.27378 8.68649 9.27316 8.87488 9.08474L10.4682 7.49138L15.1066 12.1298H1.89426ZM15.7909 11.4455L11.1525 6.80707L15.7909 2.16864V11.4455Z" fill="#2F2F2F"/>
</svg>
