<svg width="17" height="17" viewBox="0 0 17 17" fill="none" xmlns="http://www.w3.org/2000/svg">
<path d="M13.2952 10.2314C12.957 9.87929 12.5492 9.69105 12.1169 9.69105C11.6881 9.69105 11.2768 9.87581 10.9247 10.2279L9.82318 11.326C9.73254 11.2771 9.64191 11.2318 9.55476 11.1865C9.42927 11.1238 9.31075 11.0645 9.20966 11.0018C8.17782 10.3464 7.24011 9.49235 6.34074 8.38732C5.905 7.83654 5.61218 7.37291 5.39954 6.90231C5.68538 6.64087 5.95031 6.36896 6.20827 6.10752C6.30588 6.00991 6.40348 5.90882 6.50109 5.81122C7.23313 5.07917 7.23313 4.131 6.50109 3.39896L5.54943 2.4473C5.44137 2.33923 5.32982 2.22769 5.22524 2.11614C5.01608 1.90001 4.79647 1.67691 4.56989 1.46775C4.23175 1.1331 3.82738 0.955322 3.4021 0.955322C2.97682 0.955322 2.56548 1.1331 2.21688 1.46775C2.2134 1.47124 2.2134 1.47124 2.20991 1.47473L1.0247 2.6704C0.578498 3.1166 0.324025 3.6604 0.26825 4.29135C0.184588 5.30924 0.484378 6.25741 0.714449 6.87791C1.27917 8.40126 2.12276 9.81306 3.38118 11.326C4.90802 13.1491 6.7451 14.5888 8.84363 15.6032C9.6454 15.9831 10.7156 16.4328 11.9112 16.5095C11.9845 16.513 12.0611 16.5165 12.1309 16.5165C12.9361 16.5165 13.6124 16.2272 14.1422 15.652C14.1457 15.645 14.1527 15.6415 14.1562 15.6346C14.3375 15.4149 14.5466 15.2162 14.7662 15.0036C14.9161 14.8607 15.0695 14.7108 15.2194 14.5539C15.5645 14.1949 15.7458 13.7766 15.7458 13.3478C15.7458 12.9155 15.561 12.5007 15.2089 12.1521L13.2952 10.2314ZM14.5431 13.902C14.5396 13.902 14.5396 13.9055 14.5431 13.902C14.4072 14.0485 14.2677 14.1809 14.1178 14.3273C13.8913 14.5435 13.6612 14.77 13.4451 15.0245C13.093 15.401 12.6782 15.5788 12.1343 15.5788C12.0821 15.5788 12.0263 15.5788 11.974 15.5753C10.9387 15.5091 9.97656 15.1047 9.25497 14.7596C7.28194 13.8044 5.54943 12.4484 4.10974 10.7299C2.92104 9.29714 2.12625 7.97249 1.59987 6.55023C1.27568 5.68224 1.15716 5.00597 1.20945 4.36804C1.24431 3.96019 1.40118 3.62206 1.69051 3.33272L2.87921 2.14402C3.05002 1.98367 3.23129 1.89652 3.40907 1.89652C3.62868 1.89652 3.80647 2.02899 3.91802 2.14054C3.9215 2.14402 3.92499 2.14751 3.92847 2.15099C4.14112 2.34969 4.3433 2.55536 4.55594 2.77498C4.66401 2.88653 4.77555 2.99807 4.8871 3.11311L5.83876 4.06477C6.20827 4.43428 6.20827 4.7759 5.83876 5.1454C5.73767 5.2465 5.64006 5.34759 5.53897 5.44519C5.24615 5.74498 4.96728 6.02386 4.66401 6.29576C4.65703 6.30273 4.65006 6.30622 4.64658 6.31319C4.34679 6.61298 4.40256 6.9058 4.46531 7.10449C4.46879 7.11495 4.47228 7.12541 4.47577 7.13587C4.72327 7.73545 5.07186 8.30017 5.60172 8.97295L5.60521 8.97644C6.56732 10.1617 7.58173 11.0854 8.70071 11.7931C8.84363 11.8837 8.99004 11.9569 9.12948 12.0266C9.25497 12.0894 9.37349 12.1486 9.47459 12.2114C9.48853 12.2183 9.50247 12.2288 9.51642 12.2358C9.63494 12.295 9.74649 12.3229 9.86152 12.3229C10.1509 12.3229 10.3321 12.1417 10.3914 12.0824L11.5836 10.8902C11.7021 10.7717 11.8903 10.6288 12.1099 10.6288C12.3261 10.6288 12.5039 10.7647 12.6119 10.8832C12.6154 10.8867 12.6154 10.8867 12.6189 10.8902L14.5396 12.811C14.8987 13.1665 14.8987 13.5325 14.5431 13.902Z" fill="#2F2F2F"/>
<path d="M9.16861 3.92867C10.0819 4.08205 10.9116 4.51431 11.5739 5.17663C12.2362 5.83896 12.665 6.66861 12.8219 7.58192C12.8602 7.81199 13.0589 7.97235 13.2855 7.97235C13.3134 7.97235 13.3378 7.96886 13.3657 7.96538C13.6236 7.92354 13.7944 7.67953 13.7526 7.42157C13.5644 6.31653 13.0415 5.3091 12.2432 4.51082C11.4449 3.71255 10.4375 3.18966 9.33245 3.00142C9.07449 2.95959 8.83397 3.1304 8.78865 3.38487C8.74333 3.63934 8.91066 3.88684 9.16861 3.92867Z" fill="#2F2F2F"/>
<path d="M16.7393 7.28579C16.429 5.46613 15.5715 3.81032 14.2538 2.49264C12.9361 1.17496 11.2803 0.317422 9.46068 0.00717455C9.20621 -0.0381425 8.96568 0.136154 8.92036 0.390626C8.87853 0.648585 9.04934 0.889114 9.3073 0.934431C10.9317 1.20982 12.4133 1.98021 13.5915 3.15496C14.7697 4.33321 15.5366 5.81473 15.812 7.43917C15.8504 7.66924 16.0491 7.82959 16.2757 7.82959C16.3035 7.82959 16.328 7.8261 16.3558 7.82262C16.6103 7.78427 16.7846 7.54026 16.7393 7.28579Z" fill="#2F2F2F"/>
</svg>
