<svg width="24" height="24" viewBox="0 0 24 24" fill="none" xmlns="http://www.w3.org/2000/svg">
<path d="M22.5395 6.16106C22.4207 5.6392 22.1788 5.16104 21.8381 4.7749C21.4975 4.38875 21.0703 4.10829 20.5996 3.96184C18.8796 3.5 12 3.5 12 3.5C12 3.5 5.12036 3.5 3.40045 4.00582C2.92972 4.15227 2.50247 4.43274 2.16186 4.81888C1.82125 5.20503 1.57933 5.68318 1.46055 6.20505C1.14578 8.12448 0.991808 10.0716 1.00057 12.022C0.989351 13.987 1.14333 15.949 1.46055 17.8829C1.5915 18.3886 1.83883 18.8485 2.17865 19.2184C2.51847 19.5882 2.93929 19.8554 3.40045 19.9942C5.12036 20.5 12 20.5 12 20.5C12 20.5 18.8796 20.5 20.5996 19.9942C21.0703 19.8477 21.4975 19.5673 21.8381 19.1811C22.1788 18.795 22.4207 18.3168 22.5395 17.795C22.8518 15.89 23.0058 13.9577 22.9994 12.022C23.0107 10.0569 22.8567 8.09495 22.5395 6.16106Z" fill="#1E1E1E"/>
<path d="M9.75 15.02L15.5 11.75L9.75 8.47998V15.02Z" fill="white"/>
</svg>
